# xmcd
#
# Track frame offsets:
#	150
#	6590
#	11667
#	19192
#	24597
#	38452
#	59987
#	104920
#	122772
#	146567
#	156755
#	198020
#	207602
#	212555
#	219662
#	226627
#	237287
#	261692
#	269110
#	278390
#	284492
#	291895
#	305185
#	310622
#
# Disc length: 4267 seconds
#
# Revision: 0
# Processed by: cddbd v1.5.2PL0 Copyright (c) Steve Scherf et al.
# Submitted via: EasyCDDAExtractor 16.0.6.1
#
DISCID=7910a918
DTITLE=Γαϊτάνος Πέτρος - Πεντηκοστάριον-Π. Γαϊτάνος
DYEAR=1999
DGENRE=Βυζ. Εκκλησιαστική
TTITLE0=Αναστήτω-Πάσχα Ιερόν [στιχηρόν ιδιόμελον, ήχος πλ. α']
TTITLE1=Ως εκλείπει-Δεύτε από θέας [στιχηρόν ιδιόμελον, ήχος πλ. α']
TTITLE2=Ούτως απολούνται-Αι μυροφόραι [στιχηρόν ιδιόμελον, ήχος πλ. α']
TTITLE3=Αυτή η ημέρα-Πάσχα το τερπνόν [στιχηρόν ιδιόμελον, ήχος πλ. α']
TTITLE4=Αναστάσεως ημέρα [δοξαστικό Κυριακής Πάσχα, ήχος πλ. α']
TTITLE5=Μεθ' ημέρας οκτώ [δοξαστ. όρθρου Κυριακής Θωμά, ήχος πλ. β']
TTITLE6=Ανέβη ο Ιησούς [δοξ. στιχηρών εσπερ. Κυριακής Παραλύτου, ήχ.πλ. α']
TTITLE7=Κύριε τον παράλυτον [δοξ. όρθρου Κυριακής Παραλύτου, ήχ. πλ. α']
TTITLE8=Κύριε παράγων εν τη οδώ [δοξαστ. όρθρου Κυριακής Τυφλού, ήχ. πλ. α']
TTITLE9=Ο τυφλός γεννηθείς [στιχ. ιδιόμελον εσπερ. Κυριακής Τυφλού, ήχ. β']
TTITLE10=Των Αγίων Πατέρων ο χορός [δοξ. όρθρου Κυριακής Αγ. Πατέρων, ήχ. πλ. 
TTITLE10=δ']
TTITLE11=Ο Κύριος ανελήφθη [στιχ. ιδιόμ. εσπερ. Αναλήψεως, ήχ. πλ. β']
TTITLE12=Κύριε τη ση Αναλήψει [στιχ. ιδιόμ. εσπερ. Αναλήψεως, ήχ. πλ. β']
TTITLE13=Εν τοις όρεσι τοις αγίοις [στιχ. ιδιόμ. εσπερ. Αναλήψεως, ήχ. πλ. β']
TTITLE14=Κύριε της οικονομίας [στιχ. ιδιόμ. εσπερ. Αναλήψεως, ήχ. πλ. β']
TTITLE15=Κύριε οι Απόστολοι [στιχ. ιδιόμ. εσπερ. Αναλήψεως, ήχ. πλ. β']
TTITLE16=Των κόλπων των πατρικών [δοξ. στιχ. εσπερ. Αναλήψεως, ήχ. πλ. β']
TTITLE17=Ετέχθης ως Αυτός ηθέλησας [ιδιόμ. αποστίχων. εσπερ. Αναλήψεως, ήχ. β'
TTITLE17=]
TTITLE18=Ανέβη ο Θεός εν αλαλαγμώ [δοξ. αποστίχων. εσπερ. Αναλήψεως, ήχ. β']
TTITLE19=Πεντηκοστήν εορτάζομεν [στιχ. ιδιόμ. εσπερ. Πεντηκοστής, ήχ. α']
TTITLE20=Πάντα χορηγεί [στιχ. ιδιόμ. εσπερ. Πεντηκοστής, ήχ. α']
TTITLE21=Γλώσσαι πότε συνεχύθησαν [δοξαστικόν Πεντηκοστής, ήχ. δ']
TTITLE22=Ευλογητός ει Χριστέ [απολυτίκιον Πεντηκοστής, ήχ. πλ. δ']
TTITLE23=Βασιλεύ Ουράνιε [δοξαστικόν εσπερ. Πεντηκοστής, ήχ. πλ. β']
EXTD=
EXTT0=
EXTT1=
EXTT2=
EXTT3=
EXTT4=
EXTT5=
EXTT6=
EXTT7=
EXTT8=
EXTT9=
EXTT10=
EXTT11=
EXTT12=
EXTT13=
EXTT14=
EXTT15=
EXTT16=
EXTT17=
EXTT18=
EXTT19=
EXTT20=
EXTT21=
EXTT22=
EXTT23=
PLAYORDER=
